<?xml version="1.0" encoding="utf-8"?>
<!-- Generator: Adobe Illustrator 23.0.2, SVG Export Plug-In . SVG Version: 6.00 Build 0)  -->
<svg version="1.1" id="Layer_1" xmlns="http://www.w3.org/2000/svg" xmlns:xlink="http://www.w3.org/1999/xlink" x="0px" y="0px"
	 viewBox="0 0 187 192" style="enable-background:new 0 0 187 192;" xml:space="preserve">
<style type="text/css">
	.st0{fill-rule:evenodd;clip-rule:evenodd;fill:#A9C70B;}
	.st1{fill-rule:evenodd;clip-rule:evenodd;fill:#005CA9;}
</style>
<g>
	<polygon class="st0" points="53.7,115.17 53.7,147.93 79.26,161.57 79.26,124.27 	"/>
	<polygon class="st0" points="54.7,108.9 82.51,118.7 135.62,110.2 108.21,100.67 	"/>
	<polygon class="st1" points="85.81,124.36 85.81,161.14 135.61,146.24 136.03,115.64 	"/>
	<g>
		<path class="st1" d="M111.54,70.65C62.54,44.58,14.3,34.16,4.16,47.45c-5.79,7.59,2.07,21.32,19,36.56
			c1.36,1.22,2.39,1.46,3.86,2.7l0.92-2.42c-0.92-1.49-1.49-1.97-2.5-3.01C13.53,69.1,8.57,58.26,13.48,51.82
			c9.61-12.6,69.78,4.97,97.42,19.68c27.64,14.7,24.1,14.17,32.9,20.54l1.65-0.59C136.19,85.01,123,76.74,111.54,70.65L111.54,70.65
			z M147.29,95.21c0.32-0.19,2.97,2.04,3.12,2.16c19.59,16.11,29.25,31.37,23.01,39.55c-6.54,8.58-28.94,7.21-56.47-1.94l-3.88,1.33
			c33.68,12.57,61.59,15.58,69.03,5.83c7.03-9.22-6.06-27.49-31.07-46.51c-0.15-0.11-1.89-1.5-2.18-1.33L147.29,95.21z"/>
		<polygon class="st1" points="28.06,66.17 34.16,92.4 7.66,82.05 27.16,83.53 		"/>
	</g>
	<g>
		<path class="st0" d="M74.72,65.85c49.01-26.07,97.25-36.49,107.39-23.2c5.79,7.59-2.07,21.32-19,36.56
			c-1.36,1.22-2.39,1.46-3.86,2.7l-0.92-2.42c0.92-1.49,1.49-1.97,2.5-3.01c11.91-12.19,16.87-23.02,11.95-29.47
			c-9.61-12.6-69.78,4.97-97.42,19.68c-27.64,14.7-24.1,14.17-32.9,20.54l-1.65-0.59C50.07,80.21,63.27,71.94,74.72,65.85
			L74.72,65.85z M38.97,90.41c-0.32-0.19-2.97,2.04-3.12,2.16c-19.59,16.11-29.25,31.37-23.01,39.55
			c6.54,8.58,28.94,7.21,56.47-1.94l3.88,1.33c-33.68,12.57-61.59,15.58-69.03,5.83c-7.03-9.22,6.06-27.49,31.07-46.51
			c0.15-0.11,1.89-1.5,2.18-1.33L38.97,90.41z"/>
		<polygon class="st0" points="158.2,61.37 152.1,87.6 178.61,77.25 159.11,78.73 		"/>
	</g>
</g>
</svg>
